<?xml version="1.0" encoding="UTF-8"?>
<svg width="269px" height="571px" viewBox="0 0 269 571" version="1.1" xmlns="http://www.w3.org/2000/svg" xmlns:xlink="http://www.w3.org/1999/xlink">
    <title>Fill 8</title>
    <g id="Page-1" stroke="none" stroke-width="1" fill="none" fill-rule="evenodd">
        <g id="home-mobile" transform="translate(0.000000, -65.000000)" fill="#1856ED">
            <g id="hero_background_mobile" transform="translate(188.000000, 350.500000) scale(-1, 1) translate(-188.000000, -350.500000) translate(0.000000, 65.000000)">
                <path d="M667.498807,-807.494651 C725.772762,-417.913235 605.308077,-6.33240353 305.985339,292.225985 C42.9405256,554.599087 -307.610752,679.151272 -653.803424,666.067159 L-653.803424,666.067159 L-653.803424,310.235252 C-401.201351,323.605227 -144.115289,234.327145 48.3798261,42.3176299 C279.212755,-187.913934 361.996402,-510.794361 296.772561,-807.494651 L296.772561,-807.494651 Z M209.043677,-806.837275 C275.709643,-580.516375 219.298598,-325.95893 39.7746226,-147.462784 C-102.83044,-5.67890625 -293.710857,58.859215 -480.286961,46.1932441 L-480.286961,46.1932441 L-480.286961,-316.334459 C-385.879428,-301.24005 -286.018169,-330.113464 -214.976052,-400.746489 C-105.458525,-509.633364 -95.5568093,-686.59388 -199.860071,-806.837275 L-199.860071,-806.837275 Z M-1172.04402,-1593.9028 C-1115.66327,-1671.38224 -1002.91369,-1692.51137 -918.351501,-1636.16702 C-907.775266,-1632.63954 -900.734379,-1625.5965 -893.681568,-1618.55941 C-833.783353,-1558.68758 -819.689655,-1460.07901 -872.541021,-1386.12705 C-1001.48285,-1203.40119 -1059.98601,-1002.81149 -1048.08029,-801.578266 L-1048.08029,-801.578266 L-1413.18695,-801.578266 C-1424.62765,-1076.51915 -1343.91678,-1350.38748 -1172.04402,-1593.9028 Z" id="Combined-Shape" transform="translate(-366.252467, -500.500000) scale(-1, -1) translate(366.252467, 500.500000) "></path>
            </g>
        </g>
    </g>
</svg>