<?xml version="1.0" encoding="UTF-8"?>
<svg width="427px" height="868px" viewBox="0 0 427 868" version="1.1" xmlns="http://www.w3.org/2000/svg" xmlns:xlink="http://www.w3.org/1999/xlink">
    <title>Fill 8</title>
    <g id="Page-1" stroke="none" stroke-width="1" fill="none" fill-rule="evenodd">
        <g id="home-tablet" transform="translate(0.000000, -84.000000)" fill="#1856ED">
            <g id="hero_background_tablet" transform="translate(405.000000, 518.000000) scale(-1, 1) translate(-405.000000, -518.000000) translate(0.000000, 84.000000)">
                <path d="M1235.321,-1229 C1323.98304,-636.369084 1140.6997,-10.2726755 685.289295,443.89409 C285.074644,843.015828 -248.27842,1032.48451 -775,1012.58096 L-775,1012.58096 L-775,471.289771 C-390.67366,491.628165 0.474934265,355.818423 293.350374,63.7337137 C644.555627,-286.494344 770.508417,-777.659774 671.272335,-1229 L671.272335,-1229 Z M537.795517,-1228 C639.225748,-883.720841 553.398066,-496.488274 280.257819,-224.960089 C63.2885712,-9.27857601 -227.130155,88.8967587 -511,69.6292947 L-511,69.6292947 L-511,-481.847537 C-367.361822,-458.885935 -215.425966,-502.808147 -107.337554,-610.255044 C59.2900195,-775.893665 74.3551779,-1045.08585 -84.3390503,-1228 L-84.3390503,-1228 Z M-1563.48725,-2425.2834 C-1477.70565,-2543.14506 -1306.16061,-2575.28668 -1177.50182,-2489.5757 C-1161.4104,-2484.2097 -1150.69791,-2473.49583 -1139.96727,-2462.79102 C-1048.83397,-2371.71404 -1027.39084,-2221.71077 -1107.80258,-2109.21512 C-1303.98364,-1831.25268 -1392.9944,-1526.11581 -1374.88022,-1220 L-1374.88022,-1220 L-1930.37885,-1220 C-1947.78552,-1638.23983 -1824.98641,-2054.84811 -1563.48725,-2425.2834 Z" id="Combined-Shape" transform="translate(-337.500000, -762.000000) scale(-1, -1) translate(337.500000, 762.000000) "></path>
            </g>
        </g>
    </g>
</svg>