<?xml version="1.0" encoding="UTF-8"?>
<svg width="528px" height="820px" viewBox="0 0 528 820" version="1.1" xmlns="http://www.w3.org/2000/svg" xmlns:xlink="http://www.w3.org/1999/xlink">
    <title>Fill 8</title>
    <g id="Page-1" stroke="none" stroke-width="1" fill="none" fill-rule="evenodd">
        <g id="home-desktop" transform="translate(0.000000, -84.000000)" fill="#1856ED">
            <g id="hero_background_desktop" transform="translate(800.500000, 494.000000) scale(-1, 1) translate(-800.500000, -494.000000) translate(0.000000, 84.000000)">
                <path d="M2083.321,-1086 C2171.98304,-493.369084 1988.6997,132.727324 1533.2893,586.89409 C1133.07464,986.015828 599.72158,1175.48451 73,1155.58096 L73,1155.58096 L73,614.289771 C457.32634,634.628165 848.474934,498.818423 1141.35037,206.733714 C1492.55563,-143.494344 1618.50842,-634.659774 1519.27233,-1086 L1519.27233,-1086 Z M1385.79552,-1085 C1487.22575,-740.720841 1401.39807,-353.488274 1128.25782,-81.9600892 C911.288571,133.721424 620.869845,231.896759 337,212.629295 L337,212.629295 L337,-338.847537 C480.638178,-315.885935 632.574034,-359.808147 740.662446,-467.255044 C907.29002,-632.893665 922.355178,-902.085852 763.66095,-1085 L763.66095,-1085 Z M-705.868235,-2404.92942 C-604.579214,-2544.07414 -402.022592,-2582.01978 -250.105126,-2480.8314 C-231.104732,-2474.49643 -218.455654,-2461.84788 -205.785154,-2449.21004 C-98.1769491,-2341.68669 -72.8573714,-2164.59633 -167.805788,-2031.78659 C-399.452077,-1703.63063 -504.554029,-1343.39317 -483.165198,-982 L-483.165198,-982 L-1139.08578,-982 C-1159.63919,-1475.76417 -1014.6407,-1967.60217 -705.868235,-2404.92942 Z" id="Combined-Shape" transform="translate(482.000000, -690.500000) scale(-1, -1) translate(-482.000000, 690.500000) "></path>
            </g>
        </g>
    </g>
</svg>