<svg width="427" height="868" viewBox="0 0 427 868" xmlns="http://www.w3.org/2000/svg"><path d="M2720.321-295c88.662-592.63-94.621-1218.727-550.032-1672.894-400.214-399.122-933.567-588.59-1460.289-568.687v541.291c384.326-20.338 775.475 115.472 1068.35 407.556C2129.556-1237.506 2255.508-746.34 2156.272-295zm-697.525-1c101.43-344.28 15.602-731.512-257.538-1003.04-216.97-215.681-507.388-313.857-791.258-294.59v551.478c143.638-22.962 295.574 20.96 403.662 128.407 166.628 165.639 181.693 434.83 22.999 617.745zM-78.487 901.283c85.781 117.862 257.326 150.004 385.985 64.293 16.092-5.366 26.804-16.08 37.535-26.785 91.133-91.077 112.576-241.08 32.164-353.576C181.017 307.253 92.006 2.115 110.12-304H-445.38C-462.786 114.24-339.986 530.848-78.487 901.283z" fill="#1856ED" fill-rule="evenodd"/></svg>