<svg width="528" height="820" viewBox="0 0 528 820" xmlns="http://www.w3.org/2000/svg"><path d="M2720.321-295c88.662-592.63-94.621-1218.727-550.032-1672.894-400.214-399.122-933.567-588.59-1460.289-568.687v541.291c384.326-20.338 775.475 115.472 1068.35 407.556C2129.556-1237.506 2255.508-746.34 2156.272-295zm-697.525-1c101.43-344.28 15.602-731.512-257.538-1003.04-216.97-215.681-507.388-313.857-791.258-294.59v551.478c143.638-22.962 295.574 20.96 403.662 128.407 166.628 165.639 181.693 434.83 22.999 617.745zM-68.868 1023.93c101.289 139.144 303.845 177.09 455.763 75.901 19-6.335 31.65-18.983 44.32-31.621 107.608-107.523 132.928-284.614 37.98-417.423C237.547 322.63 132.445-37.607 153.834-399h-655.92C-522.64 94.764-377.642 586.602-68.869 1023.93z" fill="#1856ED" fill-rule="evenodd"/></svg>